<?xml version="1.0" standalone="no"?>
<!DOCTYPE svg PUBLIC "-//W3C//DTD SVG 20010904//EN"
 "http://www.w3.org/TR/2001/REC-SVG-20010904/DTD/svg10.dtd">
<svg version="1.0" xmlns="http://www.w3.org/2000/svg"
 width="512.000000pt" height="512.000000pt" viewBox="0 0 512.000000 512.000000"
 preserveAspectRatio="xMidYMid meet">

<g transform="translate(0.000000,512.000000) scale(0.100000,-0.100000)"
fill="#000000" stroke="none">
<path d="M2829 4990 c-220 -37 -456 -156 -660 -333 -84 -73 -87 -74 -154 -82
-153 -16 -400 -92 -559 -172 -279 -140 -494 -346 -623 -598 -220 -427 -300
-634 -349 -905 -25 -134 -25 -449 -1 -578 37 -193 132 -431 234 -583 27 -41
53 -79 56 -86 4 -6 -145 -189 -358 -440 -201 -235 -375 -448 -387 -473 -52
-104 -19 -240 75 -310 26 -19 174 -100 329 -180 l283 -145 70 0 c82 1 130 22
186 82 20 21 138 198 264 393 126 195 232 359 236 364 4 5 41 -13 81 -38 108
-70 280 -152 383 -182 63 -18 124 -28 201 -31 196 -10 276 22 435 175 206 197
336 407 384 619 20 89 45 309 46 403 0 41 4 94 7 116 l7 42 175 -126 c236
-170 688 -472 835 -559 160 -95 329 -179 388 -194 185 -46 377 103 522 406 57
121 88 208 124 356 90 366 78 722 -35 1007 -180 454 -659 1122 -1145 1597
-303 296 -482 407 -727 450 -83 15 -248 18 -323 5z m371 -190 c184 -52 364
-183 641 -467 291 -298 562 -642 779 -988 103 -164 231 -421 269 -540 37 -113
61 -273 61 -398 0 -412 -185 -912 -388 -1047 -38 -26 -54 -31 -86 -27 -124 17
-583 300 -1213 750 l-252 180 -5 51 c-12 116 -30 743 -29 1036 0 526 43 835
145 1063 40 90 42 113 11 149 -20 23 -63 31 -96 19 -19 -7 -37 -31 -62 -80
-74 -148 -123 -352 -152 -636 -21 -212 -23 -764 -3 -1190 25 -551 16 -900 -30
-1135 -34 -168 -145 -355 -315 -527 -60 -60 -89 -84 -100 -79 -26 10 -234 160
-348 251 -329 264 -591 535 -808 835 -137 190 -231 372 -293 569 -63 200 -81
313 -81 506 0 236 35 408 116 583 111 240 355 477 614 596 110 51 277 106 320
106 3 0 -34 -51 -82 -112 -107 -139 -240 -271 -317 -318 -107 -65 -121 -75
-130 -101 -19 -56 23 -113 83 -111 32 1 131 56 211 118 79 61 184 172 281 298
305 396 588 604 899 661 101 19 263 12 360 -15z m-2475 -2135 c53 -208 165
-463 274 -627 l52 -77 -77 -91 c-43 -50 -80 -87 -84 -83 -23 28 -93 152 -127
228 -51 111 -88 229 -111 349 -28 152 -18 511 16 571 3 5 12 -31 19 -80 7 -50
24 -135 38 -190z m538 -980 c32 -38 108 -123 168 -187 60 -64 109 -120 109
-124 0 -11 -671 -1047 -694 -1071 -44 -46 -58 -42 -292 77 -319 163 -361 188
-375 222 -10 24 -9 35 2 59 8 16 230 283 494 594 l480 565 25 -33 c14 -17 51
-63 83 -102z m552 -547 c55 -46 158 -128 229 -181 143 -108 143 -113 -2 -82
-128 27 -248 79 -390 171 l-82 54 52 79 c52 78 53 79 73 62 11 -10 65 -56 120
-103z"/>
<path d="M4658 2435 c-33 -18 -48 -66 -48 -155 0 -190 -66 -371 -149 -415 -17
-8 -49 -15 -73 -15 -59 0 -91 -19 -104 -60 -22 -68 21 -113 108 -113 133 0
240 76 307 217 48 100 70 195 81 349 10 135 2 170 -41 192 -34 18 -47 18 -81
0z"/>
<path d="M1159 1498 c-23 -8 -592 -644 -641 -717 -26 -37 -22 -68 11 -102 38
-37 77 -38 118 -1 33 29 577 651 606 692 48 69 -15 154 -94 128z"/>
<path d="M3530 1310 c-45 -45 -33 -112 24 -135 85 -36 156 66 91 130 -31 31
-86 34 -115 5z"/>
<path d="M3967 898 c-207 -36 -278 -297 -119 -440 39 -35 119 -68 167 -68 48
0 128 33 167 68 194 175 43 484 -215 440z m108 -193 c32 -31 32 -75 1 -111
-33 -39 -89 -39 -122 0 -49 56 -13 136 61 136 25 0 44 -8 60 -25z"/>
<path d="M3273 538 c-40 -43 -31 -108 18 -134 59 -30 119 8 119 75 0 31 -6 44
-26 60 -36 28 -85 27 -111 -1z"/>
</g>
</svg>
